<svg xmlns="http://www.w3.org/2000/svg" width="28" height="16" viewBox="0 0 28 16">
    <g fill="#8B8DA1" fill-rule="evenodd">
        <path fill-rule="nonzero" d="M8 1a7 7 0 1 0 0 14h12a7 7 0 0 0 0-14H8zm0-1h12a8 8 0 1 1 0 16H8A8 8 0 1 1 8 0z"/>
        <path d="M6.523 10.254a.487.487 0 0 1-.247-.069.573.573 0 0 1-.19-.174A.493.493 0 0 1 6 9.775a.338.338 0 0 1 .076-.244.822.822 0 0 1 .096-.207c.047-.078.098-.157.151-.235.053-.079.106-.152.16-.22.052-.067.09-.12.11-.158a15.7 15.7 0 0 1 .96-1.238c.337-.393.684-.784 1.04-1.174a26.807 26.807 0 0 1-.908.016c-.213 0-.436.008-.67.025a1.777 1.777 0 0 1-.66-.074.428.428 0 0 1-.251-.186.462.462 0 0 1-.064-.276.552.552 0 0 1 .104-.277.506.506 0 0 1 .25-.186.853.853 0 0 1 .232-.029 10.208 10.208 0 0 1 .649.012 4.4 4.4 0 0 0 .203.008c.239 0 .479-.002.72-.008a2993.201 2993.201 0 0 1 .968-.02c.08-.003.162-.004.247-.004h.267c.098 0 .19.012.278.037a.57.57 0 0 1 .231.125c.067.06.105.147.116.26a.452.452 0 0 1-.108.374.975.975 0 0 1-.139.138 14.125 14.125 0 0 0-.518.467 5.802 5.802 0 0 0-.334.345c-.308.341-.61.692-.908 1.052a20 20 0 0 0-.852 1.109c.186.005.373.012.561.02.189.008.376.015.562.02.17.006.342.007.517.004.176-.002.348-.02.518-.053.106-.016.214-.037.323-.065a.45.45 0 0 1 .322.041.478.478 0 0 1 .263.366c.01.075.005.15-.016.223a.44.44 0 0 1-.127.199.657.657 0 0 1-.307.158 37.18 37.18 0 0 1-.33.07c-.266.048-.533.07-.8.064a19.965 19.965 0 0 1-.805-.032 19.965 19.965 0 0 0-.805-.033 3.977 3.977 0 0 0-.8.065zm7.645-.926a.685.685 0 0 1 .275.22.5.5 0 0 1 .104.28.415.415 0 0 1-.092.268.551.551 0 0 1-.31.183.8.8 0 0 1-.351.004 4.087 4.087 0 0 0-.35-.053 7.974 7.974 0 0 0-.8-.024c-.264.005-.53.013-.801.024a4.456 4.456 0 0 0-.24.024c-.084.011-.169.014-.254.008a.901.901 0 0 1-.243-.048.398.398 0 0 1-.195-.155.464.464 0 0 1-.092-.28.682.682 0 0 1 .068-.276c.043-.09.096-.176.16-.26l.175-.231c.223-.309.458-.603.704-.882l.753-.848c-.111.005-.224.01-.338.012l-.347.012c-.138.01-.283.027-.434.049a.972.972 0 0 1-.434-.033.455.455 0 0 1-.263-.182.437.437 0 0 1-.071-.264.552.552 0 0 1 .095-.272.58.58 0 0 1 .24-.208.302.302 0 0 1 .15-.04c.053 0 .107-.003.16-.008.233-.017.459-.029.677-.037.217-.008.446-.015.684-.02.075 0 .192-.007.35-.02.16-.014.32-.013.483.004.162.016.305.058.43.125.124.068.192.183.203.346a.54.54 0 0 1-.048.26.948.948 0 0 1-.147.227c-.061.07-.126.137-.195.199a2.39 2.39 0 0 0-.184.183c-.244.265-.487.53-.728.796-.242.265-.474.538-.697.82a15.064 15.064 0 0 1 1.855.081l.048.016zm4.014 0a.685.685 0 0 1 .275.22.5.5 0 0 1 .103.28.415.415 0 0 1-.091.268.551.551 0 0 1-.31.183.8.8 0 0 1-.351.004 4.087 4.087 0 0 0-.35-.053 7.974 7.974 0 0 0-.801-.024c-.263.005-.53.013-.8.024a4.456 4.456 0 0 0-.24.024c-.084.011-.17.014-.254.008a.901.901 0 0 1-.243-.048.398.398 0 0 1-.195-.155.464.464 0 0 1-.092-.28.682.682 0 0 1 .068-.276c.042-.09.095-.176.16-.26l.174-.231c.223-.309.458-.603.705-.882l.753-.848c-.112.005-.225.01-.339.012l-.346.012c-.138.01-.283.027-.434.049a.972.972 0 0 1-.434-.033.455.455 0 0 1-.263-.182.437.437 0 0 1-.072-.264.552.552 0 0 1 .096-.272.58.58 0 0 1 .239-.208.302.302 0 0 1 .151-.04c.053 0 .106-.003.16-.008.233-.017.459-.029.676-.037.218-.008.446-.015.685-.02.075 0 .191-.007.35-.02.16-.014.32-.013.482.004.162.016.306.058.43.125.125.068.193.183.204.346a.54.54 0 0 1-.048.26.948.948 0 0 1-.148.227c-.06.07-.126.137-.195.199a2.39 2.39 0 0 0-.183.183c-.244.265-.487.53-.729.796-.241.265-.473.538-.696.82a15.064 15.064 0 0 1 1.855.081l.048.016zm2.373.293c0 .135-.03.25-.091.345a.62.62 0 0 1-.526.292.728.728 0 0 1-.307-.057.597.597 0 0 1-.243-.19.614.614 0 0 1-.115-.333.559.559 0 0 1 .31-.569.765.765 0 0 1 .625-.02.55.55 0 0 1 .346.532zm2.445 0a.62.62 0 0 1-.617.638.728.728 0 0 1-.307-.058.597.597 0 0 1-.243-.19.614.614 0 0 1-.115-.333.559.559 0 0 1 .31-.569.765.765 0 0 1 .625-.02.55.55 0 0 1 .346.532z"/>
    </g>
</svg>
