<svg xmlns="http://www.w3.org/2000/svg" width="32" height="16" viewBox="0 0 32 16">
    <g fill="#EB0026" fill-rule="evenodd">
        <path fill-rule="nonzero" d="M8 1a7 7 0 1 0 0 14h16a7 7 0 0 0 0-14H8zm0-1h16a8 8 0 1 1 0 16H8A8 8 0 1 1 8 0z"/>
        <path d="M8.179 9.54c.093.006.174.03.244.074s.126.097.17.159a.433.433 0 0 1 .027.456.446.446 0 0 1-.097.128.312.312 0 0 1-.135.089 4.65 4.65 0 0 1-1.017.182 5.993 5.993 0 0 1-1.033-.02l-.32-.03a.66.66 0 0 1-.306-.101.495.495 0 0 1-.24-.441V6.74a.501.501 0 0 1-.205-.352.386.386 0 0 1 .159-.367.839.839 0 0 1 .355-.167c.134-.028.266-.053.395-.073.268-.041.536-.062.804-.062s.542-.003.82-.008c.083 0 .178-.006.286-.02a.605.605 0 0 1 .286.028.516.516 0 0 1 .333.418.427.427 0 0 1-.05.255.442.442 0 0 1-.228.193 1.007 1.007 0 0 1-.414.07 12.04 12.04 0 0 0-.422-.008c-.196 0-.392.003-.588.008a5.64 5.64 0 0 0-.588.046v1.075c.186.01.372.01.557 0a20.195 20.195 0 0 0 .805-.062c.082-.01.167-.01.255 0a.389.389 0 0 1 .263.14.52.52 0 0 1 .112.259.477.477 0 0 1-.05.282.41.41 0 0 1-.224.201 1.403 1.403 0 0 1-.356.081 6.47 6.47 0 0 1-.472.04 10.408 10.408 0 0 1-.89.003v.951c.284.036.57.042.859.016.289-.026.572-.075.85-.147h.055zm4.432-3.658a.467.467 0 0 1 .24-.209.511.511 0 0 1 .29-.023c.095.02.178.07.247.147.07.078.102.178.097.302a.673.673 0 0 1-.1.329c-.062.1-.122.2-.178.297-.14.269-.272.54-.399.813a29.834 29.834 0 0 0-.7 1.643 94.9 94.9 0 0 0-.31.824 3.21 3.21 0 0 0-.107.29c-.036.11-.083.208-.14.29a.427.427 0 0 1-.445.193.525.525 0 0 1-.224-.104.454.454 0 0 1-.15-.213c-.057-.144-.111-.286-.163-.425a13.93 13.93 0 0 0-.162-.418c-.057-.144-.111-.286-.163-.425a13.93 13.93 0 0 0-.162-.418 297.08 297.08 0 0 0-.325-.847 47.555 47.555 0 0 1-.317-.847c-.067-.175-.128-.33-.182-.464a3.207 3.207 0 0 1-.143-.464.32.32 0 0 1 .05-.31.536.536 0 0 1 .588-.181.38.38 0 0 1 .244.228c.216.516.419 1.037.607 1.562.188.526.38 1.055.576 1.586a20.598 20.598 0 0 1 .116-.29l.023-.066a.195.195 0 0 1 .024-.046c.051-.206.125-.406.22-.6.095-.193.184-.388.267-.584a14.4 14.4 0 0 1 .75-1.523l.031-.047zm4.231 3.659c.093.005.174.03.244.073.07.044.126.097.17.159a.433.433 0 0 1 .027.456.446.446 0 0 1-.097.128.312.312 0 0 1-.135.089 4.65 4.65 0 0 1-1.017.182 5.993 5.993 0 0 1-1.033-.02l-.32-.03a.66.66 0 0 1-.306-.101.495.495 0 0 1-.24-.441V6.74a.501.501 0 0 1-.205-.352.386.386 0 0 1 .159-.367.839.839 0 0 1 .355-.167c.134-.028.266-.053.395-.073.268-.041.536-.062.804-.062s.542-.003.82-.008c.082 0 .178-.006.286-.02a.605.605 0 0 1 .286.028.516.516 0 0 1 .333.418.427.427 0 0 1-.05.255.442.442 0 0 1-.228.193 1.007 1.007 0 0 1-.414.07 12.04 12.04 0 0 0-.422-.008c-.196 0-.392.003-.588.008a5.64 5.64 0 0 0-.588.046v1.075c.186.01.372.01.557 0a20.195 20.195 0 0 0 .805-.062c.082-.01.167-.01.255 0a.389.389 0 0 1 .263.14.52.52 0 0 1 .112.259.477.477 0 0 1-.05.282.41.41 0 0 1-.224.201 1.403 1.403 0 0 1-.356.081 6.47 6.47 0 0 1-.472.04 10.408 10.408 0 0 1-.89.003v.951c.284.036.57.042.859.016.289-.026.572-.075.85-.147h.055zm4.372-3.628a.576.576 0 0 1 .15-.255.504.504 0 0 1 .229-.131.422.422 0 0 1 .251.015c.085.03.159.093.22.186.021.025.04.056.059.092.018.037.027.07.027.101.01.737.006 1.473-.012 2.208-.018.735-.048 1.471-.089 2.209a.355.355 0 0 1-.112.278.516.516 0 0 1-.545.097.397.397 0 0 1-.225-.213v.015a22.393 22.393 0 0 0-1.06-1.589 41.396 41.396 0 0 0-1.16-1.512v2.343c0 .16-.002.29-.007.391-.005.1-.012.18-.02.236a.685.685 0 0 1-.034.147c-.047.124-.118.206-.213.247a.46.46 0 0 1-.654-.433V8.187c0-.216-.001-.419-.004-.607a35.674 35.674 0 0 1-.003-.476c0-.175-.003-.349-.008-.522a8.812 8.812 0 0 1 0-.522c0-.087.022-.162.066-.224.043-.062.099-.11.166-.143a.563.563 0 0 1 .44-.027c.063.02.126.063.19.127a3 3 0 0 1 .19.21c.062.074.12.149.174.224l.135.181.464.569c.176.214.338.416.488.607a28.813 28.813 0 0 1 .85 1.176c.016-.47.026-.936.031-1.4.005-.464.008-.931.008-1.4l.008-.047zm5.15-.17c.097.041.179.107.243.197a.62.62 0 0 1 .116.279.375.375 0 0 1-.054.259c-.049.077-.135.129-.26.155a3.42 3.42 0 0 1-.668.054c-.209-.005-.39-.008-.546-.008 0 .619.003 1.227.008 1.825.005.599.003 1.23-.008 1.895 0 .145-.048.25-.146.314a.49.49 0 0 1-.321.08.57.57 0 0 1-.321-.138.421.421 0 0 1-.147-.34c-.006-.61-.008-1.215-.008-1.818V6.679a5.85 5.85 0 0 0-.236.008 5.53 5.53 0 0 1-.364.004 3.728 3.728 0 0 1-.406-.031 1.136 1.136 0 0 1-.363-.105.304.304 0 0 1-.163-.182.413.413 0 0 1-.004-.243.608.608 0 0 1 .128-.232.461.461 0 0 1 .232-.147c.433-.026.852-.035 1.257-.027.405.007.816.011 1.234.011.124 0 .247 0 .371-.004.124-.002.25-.003.379-.003l.046.015z"/>
    </g>
</svg>
