<svg xmlns="http://www.w3.org/2000/svg" width="28" height="16" viewBox="0 0 28 16">
    <g fill="#2DB9C3" fill-rule="evenodd">
        <path fill-rule="nonzero" d="M8 1a7 7 0 1 0 0 14h12a7 7 0 0 0 0-14H8zm0-1h12a8 8 0 1 1 0 16H8A8 8 0 1 1 8 0z"/>
        <path d="M9.714 5.9a.576.576 0 0 1 .15-.256.504.504 0 0 1 .229-.132.422.422 0 0 1 .251.016c.085.03.159.093.22.185.021.026.04.057.059.093.018.036.027.07.027.1.01.738.006 1.474-.012 2.21-.018.734-.048 1.47-.089 2.207a.355.355 0 0 1-.112.279.516.516 0 0 1-.545.097.397.397 0 0 1-.225-.213v.015a22.393 22.393 0 0 0-1.06-1.59A41.396 41.396 0 0 0 7.448 7.4v2.343c0 .16-.002.29-.007.39-.005.101-.012.18-.02.237a.685.685 0 0 1-.034.147c-.047.124-.118.206-.213.247a.46.46 0 0 1-.654-.433V8.173c0-.216-.001-.419-.004-.607a35.673 35.673 0 0 1-.003-.476c0-.175-.003-.35-.008-.522a8.812 8.812 0 0 1 0-.522c0-.088.022-.162.066-.224.043-.062.099-.11.166-.143a.563.563 0 0 1 .44-.027c.063.02.126.063.19.127a3 3 0 0 1 .19.21c.062.074.12.149.174.223.054.075.1.136.135.182l.464.569c.176.214.338.416.488.607a28.813 28.813 0 0 1 .85 1.176c.016-.47.026-.936.031-1.4.005-.465.008-.931.008-1.4l.008-.047zm4.714 3.627c.093.005.174.03.244.073.07.044.126.097.17.159a.433.433 0 0 1 .027.456.446.446 0 0 1-.097.128.312.312 0 0 1-.135.089 4.65 4.65 0 0 1-1.017.181 5.993 5.993 0 0 1-1.033-.019l-.32-.03a.66.66 0 0 1-.306-.101.495.495 0 0 1-.24-.441V6.727a.501.501 0 0 1-.205-.352.386.386 0 0 1 .159-.367.839.839 0 0 1 .355-.167c.134-.028.266-.053.395-.073.268-.042.536-.062.804-.062s.542-.003.82-.008c.083 0 .178-.006.286-.02a.605.605 0 0 1 .287.028.516.516 0 0 1 .333.418.427.427 0 0 1-.051.255.442.442 0 0 1-.228.193 1.007 1.007 0 0 1-.414.07 12.04 12.04 0 0 0-.422-.008c-.196 0-.392.003-.588.008a5.64 5.64 0 0 0-.587.046v1.075c.185.01.37.01.557 0a20.195 20.195 0 0 0 .804-.062c.082-.01.168-.01.255 0a.389.389 0 0 1 .263.14.52.52 0 0 1 .112.259.477.477 0 0 1-.05.282.41.41 0 0 1-.224.201 1.403 1.403 0 0 1-.356.081 6.47 6.47 0 0 1-.472.039 10.408 10.408 0 0 1-.89.004v.951c.284.036.57.041.86.016.288-.026.572-.075.85-.147h.054zM21.291 6a.5.5 0 0 1 .225-.325.468.468 0 0 1 .619.112c.077.095.105.22.085.375-.031.196-.071.392-.12.588-.05.196-.102.39-.159.58-.077.248-.163.49-.259.727-.095.237-.184.48-.267.727-.082.232-.166.463-.251.692a29.171 29.171 0 0 1-.364.936.798.798 0 0 1-.127.22.47.47 0 0 1-.317.186.426.426 0 0 1-.356-.1.61.61 0 0 1-.178-.267 4.706 4.706 0 0 0-.116-.305 23.6 23.6 0 0 0-.159-.41c-.059-.15-.11-.284-.15-.403a22.624 22.624 0 0 1-.252-.7c-.08-.234-.164-.468-.251-.7-.072.217-.149.427-.228.63-.08.204-.156.412-.229.623-.056.14-.11.279-.162.418-.052.14-.106.276-.163.41a3.456 3.456 0 0 1-.2.44.636.636 0 0 1-.163.221.59.59 0 0 1-.228.132.414.414 0 0 1-.244-.004.408.408 0 0 1-.216-.186 1.279 1.279 0 0 1-.182-.471 4.362 4.362 0 0 0-.12-.496c-.031-.092-.06-.185-.089-.278a11.891 11.891 0 0 0-.186-.55 39.696 39.696 0 0 1-.096-.27c-.104-.299-.21-.594-.321-.885-.111-.292-.223-.584-.337-.878a1.103 1.103 0 0 0-.085-.19 2.437 2.437 0 0 1-.1-.201c-.031-.07-.056-.14-.074-.209a.622.622 0 0 1-.02-.205.403.403 0 0 1 .097-.224.486.486 0 0 1 .422-.166c.082.007.157.04.224.096.14.119.244.276.314.472.07.196.135.377.197.542.072.18.139.362.2.545.063.183.13.365.202.545.072.196.142.39.209.58.067.191.131.384.193.58.02-.046.039-.094.054-.143.016-.049.034-.099.054-.15.104-.258.2-.514.29-.766.09-.253.175-.51.252-.774.026-.072.048-.145.066-.22a5.5 5.5 0 0 1 .058-.22c.036-.124.059-.221.07-.29a.609.609 0 0 1 .092-.229.41.41 0 0 1 .186-.158.553.553 0 0 1 .24-.047.47.47 0 0 1 .228.066.39.39 0 0 1 .158.186 4.611 4.611 0 0 1 .14.352c.025.074.051.144.077.208a29.165 29.165 0 0 1 .402 1.118 29.016 29.016 0 0 0 .449 1.23c.046-.134.09-.27.131-.41.041-.14.088-.276.14-.41.139-.371.271-.743.398-1.114a7.5 7.5 0 0 0 .29-1.137L21.29 6z"/>
    </g>
</svg>
