<svg xmlns="http://www.w3.org/2000/svg" width="48" height="48" viewBox="0 0 48 48">
    <defs>
        <linearGradient id="a" x1="100%" x2="-46.719%" y1="100%" y2="-22.059%">
            <stop offset="0%" stop-color="#007EE0"/>
            <stop offset="34.896%" stop-color="#00D9E3"/>
            <stop offset="100%" stop-color="#8EFC9C"/>
        </linearGradient>
    </defs>
    <g fill="none" fill-rule="evenodd">
        <rect width="48" height="48" fill="url(#a)" opacity=".82" rx="24"/>
        <path fill="#FFF" d="M24 40.286c-8.994 0-16.286-7.292-16.286-16.286 0-8.994 7.292-16.286 16.286-16.286 8.994 0 16.286 7.292 16.286 16.286 0 8.994-7.292 16.286-16.286 16.286zm0-3.257c7.195 0 13.029-5.834 13.029-13.029S31.195 10.971 24 10.971 10.971 16.805 10.971 24 16.805 37.029 24 37.029z"/>
        <path fill="#FFF" d="M30.352 28.016l-5.408-3.273v-7.67c0-.737-.582-1.328-1.31-1.328h-.11c-.727 0-1.31.59-1.31 1.329v8.02c0 .645.328 1.254.892 1.586l5.917 3.624c.62.369 1.42.184 1.784-.443.382-.646.182-1.476-.455-1.845z"/>
    </g>
</svg>
