<svg xmlns="http://www.w3.org/2000/svg" width="20" height="16" viewBox="0 0 20 16">
    <g fill="#EB0026" fill-rule="evenodd">
        <path fill-rule="nonzero" d="M8 1a7 7 0 1 0 0 14h4a7 7 0 0 0 0-14H8zm0-1h4a8 8 0 1 1 0 16H8A8 8 0 1 1 8 0z"/>
        <path d="M8.78 6.054a.531.531 0 0 1 .387-.357.457.457 0 0 1 .482.185c.022.025.042.053.06.087a.193.193 0 0 1 .028.092c0 .053-.003.14-.008.264s-.01.25-.012.378a10.758 10.758 0 0 1-.02.5c-.01.256-.029.512-.055.766-.027.255-.063.51-.11.767a4.68 4.68 0 0 1-.151.553 1.573 1.573 0 0 1-.237.449c-.1.13-.227.244-.38.339a2 2 0 0 1-.57.228c-.089.024-.182.04-.28.05a2.568 2.568 0 0 1-1.087-.121 1.313 1.313 0 0 1-.704-.542 2.517 2.517 0 0 1-.332-.845 4.546 4.546 0 0 1-.09-.945l.003-.842a11.76 11.76 0 0 1 .016-.606c0-.072.003-.146.008-.225a.8.8 0 0 1 .047-.225.481.481 0 0 1 .123-.185.455.455 0 0 1 .233-.107.42.42 0 0 1 .186.014.624.624 0 0 1 .178.082.546.546 0 0 1 .134.129c.037.05.056.103.056.16V6.4a1.6 1.6 0 0 1-.004.11 6.876 6.876 0 0 0 .043 2.018c.016.13.04.263.071.4a.752.752 0 0 0 .19.357c.084.09.194.153.328.19.135.035.272.045.411.031.14-.014.272-.05.396-.107a.714.714 0 0 0 .288-.228c.069-.095.122-.207.158-.335.037-.129.065-.262.083-.4.019-.137.032-.274.04-.41.008-.135.015-.26.02-.374a14.824 14.824 0 0 0 .047-.984c0-.1.003-.2.008-.3l.016-.314zm2.131.072a.504.504 0 0 1 .08-.154.65.65 0 0 1 .13-.132.484.484 0 0 1 .166-.082.33.33 0 0 1 .186.004c.195-.071.394-.13.597-.178.203-.048.406-.075.609-.082.202-.008.403.01.6.05.198.04.39.115.574.224.147.086.278.193.391.321.113.129.207.264.28.407.127.256.185.512.175.766-.01.255-.077.491-.198.71a1.857 1.857 0 0 1-.51.578 2.139 2.139 0 0 1-.77.363 2.59 2.59 0 0 1-.677.082 7.01 7.01 0 0 1-.676-.039v.692c0 .052.003.107.008.164.005.057.007.114.004.171a.889.889 0 0 1-.024.168.402.402 0 0 1-.075.153.386.386 0 0 1-.245.175.539.539 0 0 1-.526-.171.387.387 0 0 1-.099-.268V8.764a.53.53 0 0 1-.221-.178.343.343 0 0 1-.063-.217.409.409 0 0 1 .079-.21.533.533 0 0 1 .197-.165V6.168l.008-.042zm2.346.313a1.369 1.369 0 0 0-.676-.07 2.75 2.75 0 0 0-.668.185v1.554c.247.038.5.048.759.029a1.66 1.66 0 0 0 .711-.214.728.728 0 0 0 .317-.342.833.833 0 0 0 .063-.421.969.969 0 0 0-.506-.72z"/>
    </g>
</svg>
