<svg xmlns="http://www.w3.org/2000/svg" width="16" height="16" viewBox="0 0 16 16">
    <g fill="none" fill-rule="evenodd">
        <circle cx="8" cy="8" r="8" fill="#EB0026"/>
        <path fill="#FFF" d="M5.5 2.669a4.967 4.967 0 0 1 1.875-.63v4.336l-1.09-.727C5.852 5.36 5.5 4.705 5.5 4.186V2.67zm3.125-.63c.676.084 1.31.303 1.875.63v1.517c0 .52-.351 1.173-.784 1.462l-1.091.727V2.039zM7.846 11.953l-1.597.928a.307.307 0 0 1-.453-.335l.408-1.74a.307.307 0 0 0-.1-.304L4.73 9.334a.307.307 0 0 1 .172-.54l1.833-.16a.307.307 0 0 0 .254-.182l.73-1.66a.307.307 0 0 1 .562 0l.73 1.66a.307.307 0 0 0 .254.182l1.833.16a.307.307 0 0 1 .172.54l-1.374 1.168a.307.307 0 0 0-.1.304l.408 1.74a.307.307 0 0 1-.453.335l-1.597-.928a.307.307 0 0 0-.308 0z"/>
    </g>
</svg>
